<svg id="Capa_1" enable-background="new 0 0 512 512" height="512" viewBox="0 0 512 512" width="512" xmlns="http://www.w3.org/2000/svg"><g><path d="m512 356.962v-281.226c0-11.96-9.696-21.656-21.656-21.656h-468.688c-11.96 0-21.656 9.696-21.656 21.656v281.226z" fill="#ffc265"/><path d="m0 338.381h512v18.581h-512z" fill="#ffb541"/><path d="m0 356.962v79.891c0 11.635 9.432 21.067 21.067 21.067h469.865c11.635 0 21.068-9.432 21.068-21.067v-79.891z" fill="#8c808a"/><path d="m490.932 439.34h-469.865c-11.635 0-21.067-9.433-21.067-21.068v18.581c0 11.635 9.432 21.067 21.067 21.067h469.865c11.635 0 21.068-9.432 21.068-21.067v-18.581c0 11.635-9.432 21.068-21.068 21.068z" fill="#7b7179"/><path d="m453.883 414.872h-395.766c-4.267 0-7.727-3.46-7.727-7.727s3.459-7.727 7.727-7.727h395.766c4.268 0 7.727 3.46 7.727 7.727 0 4.268-3.459 7.727-7.727 7.727z" fill="#ffc265"/><path d="m210.435 399.418h-152.318c-4.267 0-7.727 3.459-7.727 7.727 0 4.267 3.459 7.727 7.727 7.727h152.318z" fill="#8bcaff"/><circle cx="210.435" cy="407.441" fill="#ff4755" r="23.797"/><path d="m210.435 412.657c-9.846 0-18.295-5.98-21.914-14.507-1.212 2.854-1.883 5.994-1.883 9.29 0 13.142 10.654 23.797 23.797 23.797s23.797-10.654 23.797-23.797c0-3.296-.671-6.436-1.883-9.29-3.619 8.527-12.068 14.507-21.914 14.507z" fill="#fc2b3a"/><ellipse cx="255.856" cy="204.657" fill="#ff4755" rx="100.402" ry="100.402" transform="matrix(.707 -.707 .707 .707 -69.776 240.86)"/><path d="m255.856 286.478c-52.317 0-95.281-40.017-99.97-91.111-.281 3.06-.432 6.157-.432 9.29 0 55.45 44.951 100.401 100.402 100.401 55.45 0 100.402-44.951 100.402-100.401 0-3.133-.151-6.23-.432-9.29-4.689 51.093-47.653 91.111-99.97 91.111z" fill="#fc2b3a"/><path d="m236.672 253.776 63.45-40.185c4.634-2.935 4.634-9.695 0-12.63l-63.45-40.185c-4.977-3.152-11.475.424-11.475 6.315v80.37c0 5.891 6.498 9.467 11.475 6.315z" fill="#e6e2e6"/><path d="m300.122 200.96-4.698-2.975-58.753 37.21c-4.977 3.152-11.475-.424-11.475-6.315v18.581c0 5.891 6.498 9.467 11.475 6.315l63.45-40.185c4.635-2.935 4.635-9.696.001-12.631z" fill="#d8d1d7"/></g></svg>